HIERARCHY
ROOT hips
{
  OFFSET 0 10.6860622 2.3727825e-15
  CHANNELS 6 Xposition Yposition Zposition Yrotation Xrotation Zrotation
  JOINT leftUpperLeg
  {
    OFFSET 0.6642549969 -0.9402397400000004 0
    CHANNELS 3 Yrotation Xrotation Zrotation
    JOINT leftLowerLeg
    {
      OFFSET 0 -3.997221335632195 0
      CHANNELS 3 Yrotation Xrotation Zrotation
      JOINT leftFoot
      {
        OFFSET -0.13777839790000004 -4.6145792000000005 -0.22186036399999998
        CHANNELS 3 Yrotation Xrotation Zrotation
        JOINT leftToes
        {
          OFFSET -0.03777410834999995 -0.9130806927000008 0.85230013
          CHANNELS 3 Yrotation Xrotation Zrotation
          End Site
          {
            OFFSET -0.03777410834999995 -0.9130806927000008 0.85230013
          }
        }
      }
    }
  }
  JOINT rightUpperLeg
  {
    OFFSET -0.6642778626 -0.9402397400000004 0
    CHANNELS 3 Yrotation Xrotation Zrotation
    JOINT rightLowerLeg
    {
      OFFSET 0 -3.997221452859387 0
      CHANNELS 3 Yrotation Xrotation Zrotation
      JOINT rightFoot
      {
        OFFSET 0.1377926176 -4.6145792000000005 -0.22185782299999995
        CHANNELS 3 Yrotation Xrotation Zrotation
        JOINT rightToes
        {
          OFFSET 0.037780746850000047 -0.9130806927000008 0.85230167
          CHANNELS 3 Yrotation Xrotation Zrotation
          End Site
          {
            OFFSET 0.037780746850000047 -0.9130806927000008 0.85230167
          }
        }
      }
    }
  }
  JOINT spine
  {
    OFFSET 0 0.13988381660000015 0
    CHANNELS 3 Yrotation Xrotation Zrotation
    JOINT chest
    {
      OFFSET 0 0.6191039003973773 0
      CHANNELS 3 Yrotation Xrotation Zrotation
      JOINT upperChest
      {
        OFFSET 0 0.9855186130586943 0
        CHANNELS 3 Yrotation Xrotation Zrotation
        JOINT leftShoulder
        {
          OFFSET 0.1807663869 1.5087829790000005 0
          CHANNELS 3 Yrotation Xrotation Zrotation
          JOINT leftUpperArm
          {
            OFFSET 0.5985063006419806 0 0
            CHANNELS 3 Yrotation Xrotation Zrotation
            JOINT leftLowerArm
            {
              OFFSET 2.2993332369501065 0 0
              CHANNELS 3 Yrotation Xrotation Zrotation
              JOINT leftHand
              {
                OFFSET 2.395047042602395 0 0
                CHANNELS 3 Yrotation Xrotation Zrotation
                JOINT leftIndexProximal
                {
                  OFFSET 0.5766295810000004 0.04556643899499946 0.17265095988184
                  CHANNELS 3 Yrotation Xrotation Zrotation
                  JOINT leftIndexIntermediate
                  {
                    OFFSET 0.2957229000000008 -0.019352197700001517 -0.007932640616999987
                    CHANNELS 3 Yrotation Xrotation Zrotation
                    JOINT leftIndexDistal
                    {
                      OFFSET 0.19008243099999922 -0.012484908149998475 -0.002786250786000012
                      CHANNELS 3 Yrotation Xrotation Zrotation
                      End Site
                      {
                        OFFSET 0.19008243099999922 -0.012484908149998475 -0.002786250786000012
                      }
                    }
                  }
                }
                JOINT leftMiddleProximal
                {
                  OFFSET 0.5834975091000001 0.0524350405149987 0.02204081888183999
                  CHANNELS 3 Yrotation Xrotation Zrotation
                  JOINT leftMiddleIntermediate
                  {
                    OFFSET 0.33880573540000003 -0.019871473270000717 -0.00000971183179999946
                    CHANNELS 3 Yrotation Xrotation Zrotation
                    JOINT leftMiddleDistal
                    {
                      OFFSET 0.20676022730000088 -0.012221336379999448 0.0001471936708000235
                      CHANNELS 3 Yrotation Xrotation Zrotation
                      End Site
                      {
                        OFFSET 0.20676022730000088 -0.012221336379999448 0.0001471936708000235
                      }
                    }
                  }
                }
                JOINT leftLittleProximal
                {
                  OFFSET 0.5344154683999995 -0.012880921405001189 -0.24414037221816004
                  CHANNELS 3 Yrotation Xrotation Zrotation
                  JOINT leftLittleIntermediate
                  {
                    OFFSET 0.21758961730000093 -0.011650919939999227 0.011893592810000034
                    CHANNELS 3 Yrotation Xrotation Zrotation
                    JOINT leftLittleDistal
                    {
                      OFFSET 0.1475273964999999 -0.008152365682999818 0.006001092492999946
                      CHANNELS 3 Yrotation Xrotation Zrotation
                      End Site
                      {
                        OFFSET 0.1475273964999999 -0.008152365682999818 0.006001092492999946
                      }
                    }
                  }
                }
                JOINT leftRingProximal
                {
                  OFFSET 0.5799399463000003 0.026911854694997794 -0.12150566991816003
                  CHANNELS 3 Yrotation Xrotation Zrotation
                  JOINT leftRingIntermediate
                  {
                    OFFSET 0.26167887460000006 -0.013480186499999602 0.010996293000000053
                    CHANNELS 3 Yrotation Xrotation Zrotation
                    JOINT leftRingDistal
                    {
                      OFFSET 0.17667108799999987 -0.008990287899999228 0.0055541023999999065
                      CHANNELS 3 Yrotation Xrotation Zrotation
                      End Site
                      {
                        OFFSET 0.17667108799999987 -0.008990287899999228 0.0055541023999999065
                      }
                    }
                  }
                }
                JOINT leftThumbProximal
                {
                  OFFSET 0.11018806699999972 -0.09448718900500053 0.17047963138184
                  CHANNELS 3 Yrotation Xrotation Zrotation
                  JOINT leftThumbIntermediate
                  {
                    OFFSET 0.31062601459999983 -0.08126270900000132 0.15443142000000007
                    CHANNELS 3 Yrotation Xrotation Zrotation
                    JOINT leftThumbDistal
                    {
                      OFFSET 0.21627175790000086 -0.08833193599999878 0.018771167799999988
                      CHANNELS 3 Yrotation Xrotation Zrotation
                      End Site
                      {
                        OFFSET 0.21627175790000086 -0.08833193599999878 0.018771167799999988
                      }
                    }
                  }
                }
              }
            }
          }
        }
        JOINT neck
        {
          OFFSET 0 1.5463305265074576 0
          CHANNELS 3 Yrotation Xrotation Zrotation
          JOINT head
          {
            OFFSET 0 0.8456443600000344 0
            CHANNELS 3 Yrotation Xrotation Zrotation
            JOINT leftEye
            {
              OFFSET 0.30408573140000006 0.5104519199999995 0.1276382305
              CHANNELS 3 Yrotation Xrotation Zrotation
              End Site
              {
                OFFSET 0.30408573140000006 0.5104519199999995 0.1276382305
              }
            }
            JOINT rightEye
            {
              OFFSET -0.30409491089999996 0.5104519199999995 0.1276379445
              CHANNELS 3 Yrotation Xrotation Zrotation
              End Site
              {
                OFFSET -0.30409491089999996 0.5104519199999995 0.1276379445
              }
            }
            JOINT jaw
            {
              OFFSET -3.155239131000001e-7 -0.11984121820000082 0.60178107
              CHANNELS 3 Yrotation Xrotation Zrotation
              End Site
              {
                OFFSET -3.155239131000001e-7 -0.11984121820000082 0.60178107
              }
            }
          }
        }
        JOINT rightShoulder
        {
          OFFSET -0.1807303465 1.5087829790000005 0
          CHANNELS 3 Yrotation Xrotation Zrotation
          JOINT rightUpperArm
          {
            OFFSET -0.5985063796536958 0 0
            CHANNELS 3 Yrotation Xrotation Zrotation
            JOINT rightLowerArm
            {
              OFFSET -2.2993322059002854 0 0
              CHANNELS 3 Yrotation Xrotation Zrotation
              JOINT rightHand
              {
                OFFSET -2.395045314457259 0 0
                CHANNELS 3 Yrotation Xrotation Zrotation
                JOINT rightIndexProximal
                {
                  OFFSET -0.5764487688300002 0.0441371204405987 0.17361932004999997
                  CHANNELS 3 Yrotation Xrotation Zrotation
                  JOINT rightIndexIntermediate
                  {
                    OFFSET -0.29573011380000047 -0.01934826376999843 -0.007698921482999974
                    CHANNELS 3 Yrotation Xrotation Zrotation
                    JOINT rightIndexDistal
                    {
                      OFFSET -0.19008373999999884 -0.012503266380000655 -0.0026365778999999897
                      CHANNELS 3 Yrotation Xrotation Zrotation
                      End Site
                      {
                        OFFSET -0.19008373999999884 -0.012503266380000655 -0.0026365778999999897
                      }
                    }
                  }
                }
                JOINT rightMiddleProximal
                {
                  OFFSET -0.5834852037300005 0.05211639405060153 0.02307162440000001
                  CHANNELS 3 Yrotation Xrotation Zrotation
                  JOINT rightMiddleIntermediate
                  {
                    OFFSET -0.33880114510000003 -0.019952774050000954 0.0002455003561999819
                    CHANNELS 3 Yrotation Xrotation Zrotation
                    JOINT rightMiddleDistal
                    {
                      OFFSET -0.20675694929999955 -0.012273788999999091 0.00030209124000002766
                      CHANNELS 3 Yrotation Xrotation Zrotation
                      End Site
                      {
                        OFFSET -0.20675694929999955 -0.012273788999999091 0.00030209124000002766
                      }
                    }
                  }
                }
                JOINT rightLittleProximal
                {
                  OFFSET -0.5346811737299992 -0.011214256288399227 -0.24363941305000003
                  CHANNELS 3 Yrotation Xrotation Zrotation
                  JOINT rightLittleIntermediate
                  {
                    OFFSET -0.21757715980000092 -0.011771559690000988 0.01201554387
                    CHANNELS 3 Yrotation Xrotation Zrotation
                    JOINT rightLittleDistal
                    {
                      OFFSET -0.1475201849000004 -0.00822055339600003 0.006082065407000015
                      CHANNELS 3 Yrotation Xrotation Zrotation
                      End Site
                      {
                        OFFSET -0.1475201849000004 -0.00822055339600003 0.006082065407000015
                      }
                    }
                  }
                }
                JOINT rightRingProximal
                {
                  OFFSET -0.5800810755299999 0.027657985680600072 -0.12066365025000003
                  CHANNELS 3 Yrotation Xrotation Zrotation
                  JOINT rightRingIntermediate
                  {
                    OFFSET -0.26166445029999974 -0.013623118409999302 0.011164098990000045
                    CHANNELS 3 Yrotation Xrotation Zrotation
                    JOINT rightRingDistal
                    {
                      OFFSET -0.17666387530000027 -0.009072900100000503 0.005668185599999959
                      CHANNELS 3 Yrotation Xrotation Zrotation
                      End Site
                      {
                        OFFSET -0.17666387530000027 -0.009072900100000503 0.005668185599999959
                      }
                    }
                  }
                }
                JOINT rightThumbProximal
                {
                  OFFSET -0.10997596379000074 -0.09577489355940072 0.16989765924999997
                  CHANNELS 3 Yrotation Xrotation Zrotation
                  JOINT rightThumbIntermediate
                  {
                    OFFSET -0.31036620999999986 -0.08229339117999834 0.15440884469999996
                    CHANNELS 3 Yrotation Xrotation Zrotation
                    JOINT rightThumbDistal
                    {
                      OFFSET -0.21631306399999906 -0.08825326400000111 0.018656797720000014
                      CHANNELS 3 Yrotation Xrotation Zrotation
                      End Site
                      {
                        OFFSET -0.21631306399999906 -0.08825326400000111 0.018656797720000014
                      }
                    }
                  }
                }
              }
            }
          }
        }
      }
    }
  }
}
MOTION
Frames: 9
Frame Time: 0.03333333333333333
0 -0.7876355002424792 7.466115805379824 -179.99999613527856 75.00404836827043 -179.9999952668952 179.54181148834462 -76.02005977019549 -178.33315427811934 0.4283266666116604 -2.209466598344991 0.14804165167436173 7.2334462715180985 40.42318163545396 6.799342746285399 0 0 0 172.90716529792238 -76.79408571691869 -173.9929404137578 -0.3392576216321803 -4.006906627614523 -1.0228301772364108 -7.140174622638373 39.45657519643543 -6.5741200710590935 0 0 0 -0.9777332808565482 -22.903484659494083 -0.7318238296365965 -2.0659257033236598 0.7042452940942665 -1.3428253169610536 0 0 0 -44.30557697252894 14.498243652844666 0.3979149614659482 -21.314708045944126 -30.32460612479525 -4.128473955284815 -25.980094867854234 3.975214533280025 14.177923363675054 -9.880451941940033 -0.9984740359552824 39.000522130568655 0 0 0 0 0 0 0 0 0 0 0 0 0 0 0 0 0 0 0 0 0 0 0 0 0 0 0 0 0 0 0 0 0 0 0 0 0 0 0 0 0 0 0 0 0 0 1.5425986722193314 0 0 0.01924200062032603 0 0 0 0 0 0 0 0 0 0 43.806687281631675 14.386145701140977 -0.44917846387048976 22.730384568836836 -30.269904154463347 4.20129107162196 27.49976019672169 4.308057431941992 -14.471740627263193 9.034280244772612 -0.6670789859269383 -38.928973630336486 0 0 0 0 0 0 0 0 0 0 0 0 0 0 0 0 0 0 0 0 0 0 0 0 0 0 0 0 0 0 0 0 0 0 0 0 0 0 0 0 0 0 0 0 0
0 -0.7876355002424792 7.4807077563861935 -179.99999613527856 75.00404836827043 -179.9999952668952 179.54181174269766 -76.02004563383404 -178.33315354740725 0.4283266666116604 -2.209466598344991 0.14804165167436173 7.151329964742777 40.31894010099517 6.812922016807187 0 0 0 172.90716529792238 -76.79408571691869 -173.9929404137578 -0.3392576216321803 -4.006906627614523 -1.0228301772364108 -7.140174622638373 39.45657519643543 -6.5741200710590935 0 0 0 -0.9823152380380167 -23.53088358977225 -0.7201175274519896 -2.0671636432651193 2.1048826766409405 -1.3933842810410737 0 0 0 -44.176223417392315 14.26822004310651 0.8842559598346791 -21.314708045944126 -30.32460612479525 -4.128473955284815 -25.980094867854234 3.975214533280025 14.177923363675054 -9.92413815917885 -1.1268543939737719 39.247887875310724 0 0 0 0 0 0 0 0 0 0 0 0 0 0 0 0 0 0 0 0 0 0 0 0 0 0 0 0 0 0 0 0 0 0 0 0 0 0 0 0 0 0 0 0 0 0 1.5415936300774733 0 0 0.0179590005434195 0 0 0 0 0 0 0 0 0 0 43.64923889369794 14.156915820757298 -0.9174796681547382 22.730384568836836 -30.269904154463347 4.20129107162196 27.49976019672169 4.308057431941992 -14.471740627263193 9.019581619397751 -0.8097575686747596 -39.19220174107692 0 0 0 0 0 0 0 0 0 0 0 0 0 0 0 0 0 0 0 0 0 0 0 0 0 0 0 0 0 0 0 0 0 0 0 0 0 0 0 0 0 0 0 0 0
0 -0.7876355002424792 7.495299975784832 -179.99999613527856 75.00404836827043 -179.9999952668952 179.54181148834462 -76.02005977019549 -178.33315427811934 0.4283265865130706 -2.209466598344991 0.1480426529313992 7.069308871608871 40.21471615378281 6.826677425517418 0 0 0 172.90716529792238 -76.79408571691869 -173.9929404137578 -0.3392575681415122 -4.006906627614523 -1.0228311399318775 -7.140174622638373 39.45657519643543 -6.5741200710590935 0 0 0 -0.9870600808861366 -24.15821008683877 -0.7082998100033598 -2.0696394232040327 3.5046770525985793 -1.4440027043799422 0 0 0 -44.04904495692358 14.037165519253588 1.369526771528503 -21.314708045944126 -30.32460612479525 -4.128473955284815 -25.980094867854234 3.975214533280025 14.177923363675054 -9.968383401285012 -1.2550382309993267 39.49537250180376 0 0 0 0 0 0 0 0 0 0 0 0 0 0 0 0 0 0 0 0 0 0 0 0 0 0 0 0 0 0 0 0 0 0 0 0 0 0 0 0 0 0 0 0 0 0 1.5405885884100732 0 0 0.01667600047551811 0 0 0 0 0 0 0 0 0 0 43.49390348361269 13.92646828363981 -1.384621371814506 22.730384568836836 -30.269904154463347 4.20129107162196 27.49976019672169 4.308057431941992 -14.471740627263193 9.005542050417805 -0.9524966763315439 -39.45540800562615 0 0 0 0 0 0 0 0 0 0 0 0 0 0 0 0 0 0 0 0 0 0 0 0 0 0 0 0 0 0 0 0 0 0 0 0 0 0 0 0 0 0 0 0 0
0 -0.7876355002424792 7.509892195183473 -179.99999613527856 75.00404836827043 -179.9999952668952 179.54181148834462 -76.02005977019549 -178.33315427811934 0.4283266666116604 -2.209466598344991 0.14804165167436173 6.9873826147169495 40.11050490330404 6.8406071518376885 0 0 0 172.90716529792238 -76.79408571691869 -173.9929404137578 -0.3392576216321803 -4.006906627614523 -1.0228301772364108 -7.140174622638373 39.45657519643543 -6.5741200710590935 0 0 0 -0.9919698201528713 -24.785422243849805 -0.6963684252289818 -2.07335774945594 4.903216249455052 -1.4947284298139478 0 0 0 -43.92402725043015 13.805104965471442 1.8537200859163505 -21.314708045944126 -30.32460612479525 -4.128473955284815 -25.980094867854234 3.975214533280025 14.177923363675054 -10.013180516018313 -1.3830266950092889 39.74294797868758 0 0 0 0 0 0 0 0 0 0 0 0 0 0 0 0 0 0 0 0 0 0 0 0 0 0 0 0 0 0 0 0 0 0 0 0 0 0 0 0 0 0 0 0 0 0 1.539583653977067 0 0 0.015393999264479619 0 0 0 0 0 0 0 0 0 0 43.34068822458412 13.694832035303564 -1.8506048066017178 22.730384568836836 -30.269904154463347 4.20129107162196 27.49976019672169 4.308057431941992 -14.471740627263193 8.992154067695193 -1.0952950136145654 -39.718569233134325 0 0 0 0 0 0 0 0 0 0 0 0 0 0 0 0 0 0 0 0 0 0 0 0 0 0 0 0 0 0 0 0 0 0 0 0 0 0 0 0 0 0 0 0 0
0 -0.7876355002424792 7.52448387779757 -179.99999613527856 75.00404836827043 -179.9999952668952 179.54181148834462 -76.02005977019549 -178.33315427811934 0.4283266666116604 -2.209466598344991 0.14804165167436173 6.905548056585075 40.006319322774694 6.854710015829005 0 0 0 172.90716529792238 -76.79408571691869 -173.9929404137578 -0.3392576216321803 -4.006906627614523 -1.0228301772364108 -7.140174622638373 39.45657519643543 -6.5741200710590935 0 0 0 -0.9970476573580502 -25.412476866853915 -0.6843185260430448 -2.078323878130622 6.300081206910969 -1.5456059551593673 0 0 0 -43.80117845173001 13.572065711502422 2.3368309868467523 -21.314708045944126 -30.32460612479525 -4.128473955284815 -25.980094867854234 3.975214533280025 14.177923363675054 -10.058531460819665 -1.5108139890360872 39.990624326209876 0 0 0 0 0 0 0 0 0 0 0 0 0 0 0 0 0 0 0 0 0 0 0 0 0 0 0 0 0 0 0 0 0 0 0 0 0 0 0 0 0 0 0 0 0 0 1.5385786132576027 0 0 0.014110999212652747 0 0 0 0 0 0 0 0 0 0 43.18957032100313 13.46202790350978 -2.315415775935042 22.730384568836836 -30.269904154463347 4.20129107162196 27.49976019672169 4.308057431941992 -14.471740627263193 8.979424255440634 -1.2381424272292607 -39.98170768015345 0 0 0 0 0 0 0 0 0 0 0 0 0 0 0 0 0 0 0 0 0 0 0 0 0 0 0 0 0 0 0 0 0 0 0 0 0 0 0 0 0 0 0 0 0
0 -0.7876355002424792 7.53907609719621 -179.99999613527856 75.00404836827043 -179.9999952668952 179.54181174269766 -76.02004563383404 -178.33315354740725 0.4283265865130706 -2.209466598344991 0.1480426529313992 6.823808712945322 39.90215004758121 6.868987586364572 0 0 0 172.90716529792238 -76.79408571691869 -173.9929404137578 -0.3392576216321803 -4.006906627614523 -1.0228301772364108 -7.140174622638373 39.45657519643543 -6.5741200710590935 0 0 0 -1.0022980943506903 -26.03935218760614 -0.6721475967063365 -2.084544980873277 7.694856026612397 -1.596680450226426 0 0 0 -43.68048931425659 13.33808015488936 2.818857163161801 -21.314708045944126 -30.32460612479525 -4.128473955284815 -25.980094867854234 3.975214533280025 14.177923363675054 -10.104434749199184 -1.6383960171110903 40.23841068534365 0 0 0 0 0 0 0 0 0 0 0 0 0 0 0 0 0 0 0 0 0 0 0 0 0 0 0 0 0 0 0 0 0 0 0 0 0 0 0 0 0 0 0 0 0 0 1.5375735730116669 0 0 0.012828000001664862 0 0 0 0 0 0 0 0 0 0 43.040586869536135 13.228090565349936 -2.7790544239964214 22.730384568836836 -30.269904154463347 4.20129107162196 27.49976019672169 4.308057431941992 -14.471740627263193 8.967351632183268 -1.3810392788775905 -40.24480234620328 0 0 0 0 0 0 0 0 0 0 0 0 0 0 0 0 0 0 0 0 0 0 0 0 0 0 0 0 0 0 0 0 0 0 0 0 0 0 0 0 0 0 0 0 0
0 -0.7876355002424792 7.55366831659485 -179.99999613527856 75.00404836827043 -179.9999952668952 179.54181148834462 -76.02005977019549 -178.33315427811934 0.4283266666116604 -2.209466598344991 0.14804165167436173 6.742158704216908 39.797996659844245 6.88343372241296 0 0 0 172.90716529792238 -76.79408571691869 -173.9929404137578 -0.3392576216321803 -4.006906627614523 -1.0228301772364108 -7.140174622638373 39.45657519643543 -6.5741200710590935 0 0 0 -1.0077238007059102 -26.665996794759113 -0.659850148524351 -2.0920336409169193 9.087140866052115 -1.6480014481903313 0 0 0 -43.56197800014723 13.103174343124774 3.299794078506917 -21.314708045944126 -30.32460612479525 -4.128473955284815 -25.980094867854234 3.975214533280025 14.177923363675054 -10.150887217015926 -1.7657708116546462 40.4862830041498 0 0 0 0 0 0 0 0 0 0 0 0 0 0 0 0 0 0 0 0 0 0 0 0 0 0 0 0 0 0 0 0 0 0 0 0 0 0 0 0 0 0 0 0 0 0 1.5365686399990444 0 0 0.011544999963345938 0 0 0 0 0 0 0 0 0 0 42.8937348871967 12.993046576813754 -3.241517058791854 22.730384568836836 -30.269904154463347 4.20129107162196 27.49976019672169 4.308057431941992 -14.471740627263193 8.955934928657998 -1.523977284622075 -40.50786929637323 0 0 0 0 0 0 0 0 0 0 0 0 0 0 0 0 0 0 0 0 0 0 0 0 0 0 0 0 0 0 0 0 0 0 0 0 0 0 0 0 0 0 0 0 0
0 -0.7876355002424792 7.568259999208948 -179.99999613527856 75.00404836827043 -179.9999952668952 179.54181148834462 -76.02005977019549 -178.33315427811934 0.4283266666116604 -2.209466598344991 0.14804165167436173 6.660599349760888 39.69385874402114 6.898051078889551 0 0 0 172.90716529792238 -76.79408571691869 -173.9929404137578 -0.3392575681415122 -4.006906627614523 -1.0228311399318775 -7.140174622638373 39.45657519643543 -6.5741200710590935 0 0 0 -1.0133294447852352 -27.29237680896488 -0.6474225044049664 -2.100803296809973 10.476524211315088 -1.6996149859711667 0 0 0 -43.44562800422189 12.867379391847171 3.7796316081706656 -21.314708045944126 -30.32460612479525 -4.128473955284815 -25.980094867854234 3.975214533280025 14.177923363675054 -10.19789279927709 -1.892931059455669 40.73426959918772 0 0 0 0 0 0 0 0 0 0 0 0 0 0 0 0 0 0 0 0 0 0 0 0 0 0 0 0 0 0 0 0 0 0 0 0 0 0 0 0 0 0 0 0 0 0 1.5355636006991853 0 0 0.010261999930815993 0 0 0 0 0 0 0 0 0 0 42.74899434894858 12.756919666035799 -3.702797276949169 22.730384568836836 -30.269904154463347 4.20129107162196 27.49976019672169 4.308057431941992 -14.471740627263193 8.945174678205623 -1.6669526442267941 -40.77089856088764 0 0 0 0 0 0 0 0 0 0 0 0 0 0 0 0 0 0 0 0 0 0 0 0 0 0 0 0 0 0 0 0 0 0 0 0 0 0 0 0 0 0 0 0 0
0 -0.7876355002424792 7.582852218607588 -179.99999613527856 75.00404836827043 -179.9999952668952 179.54181148834462 -76.02005977019549 -178.33315427811934 0.4283265865130706 -2.209466598344991 0.1480426529313992 6.579129721889679 39.58973145529882 6.912837973761864 0 0 0 172.90716529792238 -76.79408571691869 -173.9929404137578 -0.3392576216321803 -4.006906627614523 -1.0228301772364108 -7.140174622638373 39.45657519643543 -6.5741200710590935 0 0 0 -1.0191175533966896 -27.918455059744588 -0.634860720301026 -2.110867179590333 11.862606462480256 -1.7515684614424063 0 0 0 -43.33146734738559 12.63072271413189 4.258375289196266 -21.314708045944126 -30.32460612479525 -4.128473955284815 -25.980094867854234 3.975214533280025 14.177923363675054 -10.245448122162076 -2.019874778382089 40.98234718242587 0 0 0 0 0 0 0 0 0 0 0 0 0 0 0 0 0 0 0 0 0 0 0 0 0 0 0 0 0 0 0 0 0 0 0 0 0 0 0 0 0 0 0 0 0 0 1.5345586686319195 0 0 0.008979999585672348 0 0 0 0 0 0 0 0 0 0 42.606392222127276 12.519741243140937 -4.162893490543781 22.730384568836836 -30.269904154463347 4.20129107162196 27.49976019672169 4.308057431941992 -14.471740627263193 8.935069347491956 -1.8099624119847217 -41.03387210703453 0 0 0 0 0 0 0 0 0 0 0 0 0 0 0 0 0 0 0 0 0 0 0 0 0 0 0 0 0 0 0 0 0 0 0 0 0 0 0 0 0 0 0 0 0
